<svg width="24" height="24" viewBox="0 0 24 24" fill="none" xmlns="http://www.w3.org/2000/svg">
<g opacity="0.5">
<path d="M14.2969 12C14.2969 13.2685 13.2685 14.2969 12 14.2969C10.7314 14.2969 9.70312 13.2685 9.70312 12C9.70312 10.7314 10.7314 9.70312 12 9.70312C13.2685 9.70312 14.2969 10.7314 14.2969 12Z" fill="url(#paint0_linear_335_1780)"/>
<path d="M17.3723 7.9357C17.2619 7.63652 17.0857 7.36572 16.8568 7.14343C16.6346 6.91455 16.3639 6.7384 16.0646 6.62799C15.8218 6.53369 15.457 6.42145 14.7852 6.39087C14.0584 6.35773 13.8406 6.35059 12.0007 6.35059C10.1607 6.35059 9.94281 6.35754 9.21621 6.39068C8.54444 6.42145 8.17949 6.53369 7.93686 6.62799C7.63754 6.7384 7.3667 6.91455 7.14459 7.14343C6.91571 7.36572 6.73956 7.63637 6.62897 7.9357C6.53467 8.17855 6.42242 8.54342 6.39184 9.21527C6.3587 9.9418 6.35156 10.1597 6.35156 11.9997C6.35156 13.8396 6.3587 14.0575 6.39184 14.7842C6.42242 15.456 6.53467 15.8208 6.62897 16.0636C6.73956 16.363 6.91553 16.6336 7.14441 16.8559C7.3667 17.0848 7.63731 17.2609 7.93671 17.3713C8.17948 17.4658 8.54444 17.5781 9.21621 17.6087C9.94281 17.6417 10.1605 17.6487 12.0006 17.6487C13.8408 17.6487 14.0587 17.6417 14.785 17.6087C15.4569 17.5781 15.8218 17.4658 16.0646 17.3713C16.6655 17.1395 17.1405 16.6646 17.3723 16.0636C17.4666 15.8208 17.5789 15.456 17.6096 14.7842C17.6428 14.0575 17.6497 13.8396 17.6497 11.9997C17.6497 10.1597 17.6428 9.9418 17.6096 9.21527C17.579 8.54342 17.4668 8.17855 17.3723 7.9357ZM12.0007 15.5379C10.0465 15.5379 8.46223 13.9538 8.46223 11.9996C8.46223 10.0453 10.0465 8.46122 12.0007 8.46122C13.9549 8.46122 15.5391 10.0453 15.5391 11.9996C15.5391 13.9538 13.9549 15.5379 12.0007 15.5379ZM15.679 9.14822C15.2223 9.14822 14.8521 8.77802 14.8521 8.32135C14.8521 7.86467 15.2223 7.49444 15.679 7.49444C16.1356 7.49444 16.5058 7.86467 16.5058 8.32135C16.5057 8.77802 16.1356 9.14822 15.679 9.14822Z" fill="url(#paint1_linear_335_1780)"/>
<path d="M12 0C5.3736 0 0 5.37359 0 12C0 18.6264 5.3736 24 12 24C18.6264 24 24 18.6264 24 12C24 5.37359 18.6264 0 12 0ZM18.8491 14.8408C18.8157 15.5744 18.6991 16.0752 18.5288 16.5136C18.1708 17.4391 17.4391 18.1708 16.5136 18.5288C16.0753 18.6991 15.5744 18.8155 14.8411 18.8491C14.1062 18.8825 13.8716 18.8906 12.0002 18.8906C10.1287 18.8906 9.89408 18.8825 9.15915 18.8491C8.4258 18.8155 7.9248 18.6991 7.48663 18.5288C7.02667 18.3558 6.61029 18.0846 6.26606 17.734C5.91559 17.3899 5.64441 16.9733 5.47138 16.5136C5.30109 16.0753 5.18445 15.5744 5.15112 14.8411C5.11725 14.1061 5.10938 13.8713 5.10938 12C5.10938 10.1287 5.11725 9.89392 5.15094 9.15915C5.18426 8.42558 5.30072 7.9248 5.47101 7.48645C5.64404 7.02667 5.91541 6.6101 6.26606 6.26605C6.61011 5.9154 7.02667 5.64422 7.48645 5.47119C7.9248 5.3009 8.42558 5.18444 9.15915 5.15094C9.89392 5.11743 10.1287 5.10938 12 5.10938C13.8713 5.10938 14.1061 5.11743 14.8408 5.15112C15.5744 5.18445 16.0752 5.3009 16.5136 5.471C16.9733 5.64404 17.3899 5.9154 17.7341 6.26605C18.0846 6.61029 18.3559 7.02667 18.5288 7.48645C18.6993 7.9248 18.8157 8.42558 18.8492 9.15915C18.8827 9.89392 18.8906 10.1287 18.8906 12C18.8906 13.8713 18.8827 14.1061 18.8491 14.8408Z" fill="url(#paint2_linear_335_1780)"/>
</g>
<defs>
<linearGradient id="paint0_linear_335_1780" x1="19.6361" y1="2.77556" x2="3.03458" y2="20.6828" gradientUnits="userSpaceOnUse">
<stop stop-color="#9001DC"/>
<stop offset="0.484375" stop-color="#FC2183"/>
<stop offset="1" stop-color="#FEDA17"/>
</linearGradient>
<linearGradient id="paint1_linear_335_1780" x1="19.6368" y1="2.77513" x2="3.03532" y2="20.6823" gradientUnits="userSpaceOnUse">
<stop stop-color="#9001DC"/>
<stop offset="0.484375" stop-color="#FC2183"/>
<stop offset="1" stop-color="#FEDA17"/>
</linearGradient>
<linearGradient id="paint2_linear_335_1780" x1="19.6361" y1="2.77555" x2="3.03458" y2="20.6827" gradientUnits="userSpaceOnUse">
<stop stop-color="#9001DC"/>
<stop offset="0.484375" stop-color="#FC2183"/>
<stop offset="1" stop-color="#FEDA17"/>
</linearGradient>
</defs>
</svg>
