<svg width="24" height="24" viewBox="0 0 24 24" fill="none" xmlns="http://www.w3.org/2000/svg">
<path d="M12 0C5.37359 0 0 5.37359 0 12C0 18.6264 5.37359 24 12 24C18.6264 24 24 18.6264 24 12C24 5.37359 18.6264 0 12 0ZM8.51295 18.1406H5.59039V9.34807H8.51295V18.1406ZM7.05175 8.14748H7.03271C6.05201 8.14748 5.41772 7.47235 5.41772 6.6286C5.41772 5.7658 6.07141 5.10938 7.07117 5.10938C8.0709 5.10938 8.68612 5.7658 8.70518 6.6286C8.70518 7.47235 8.0709 8.14748 7.05175 8.14748ZM19.0511 18.1406H16.1288V13.4368C16.1288 12.2547 15.7057 11.4485 14.6483 11.4485C13.841 11.4485 13.3601 11.9923 13.1488 12.5173C13.0715 12.7051 13.0527 12.9677 13.0527 13.2304V18.1406H10.1303C10.1303 18.1406 10.1686 10.173 10.1303 9.34807H13.0527V10.593C13.4411 9.9939 14.1359 9.14175 15.6865 9.14175C17.6093 9.14175 19.0511 10.3984 19.0511 13.099V18.1406Z" fill="#0B69C7"/>
</svg>
