<svg width="24" height="24" viewBox="0 0 24 24" fill="none" xmlns="http://www.w3.org/2000/svg">
<path d="M10.5645 9.70117L14.3082 12.0001L10.5645 14.3007V9.70117Z" fill="#F20000"/>
<path d="M12 0C9.62663 0 7.30655 0.703787 5.33316 2.02237C3.35977 3.34094 1.82171 5.21509 0.913448 7.40779C0.00519955 9.60052 -0.232441 12.0133 0.230582 14.3411C0.693605 16.6688 1.83649 18.8071 3.51472 20.4853C5.19296 22.1635 7.33115 23.3064 9.65895 23.7695C11.9867 24.2324 14.3995 23.9948 16.5922 23.0866C18.785 22.1783 20.659 20.6402 21.9776 18.6668C23.2962 16.6934 24 14.3734 24 12C24 8.81738 22.7357 5.76515 20.4853 3.51472C18.2348 1.26428 15.1826 0 12 0ZM17.719 14.8879C17.479 15.6253 16.6847 16.0737 15.9537 16.1763C13.3253 16.4557 10.6747 16.4557 8.0463 16.1763C7.31527 16.0737 6.52105 15.6253 6.28105 14.8879C5.90686 12.9814 5.90686 11.0202 6.28105 9.1137C6.52105 8.36843 7.31527 7.92787 8.0526 7.82527C10.6811 7.54575 13.3316 7.54575 15.96 7.82527C16.691 7.92787 17.4853 8.37473 17.7253 9.1137C18.0973 11.0206 18.0952 12.9818 17.719 14.8879Z" fill="#F20000"/>
</svg>
